<?xml version="1.0" encoding="UTF-8"?>
<svg id="Layer_1" xmlns="http://www.w3.org/2000/svg" version="1.1" viewBox="0 0 260 650">
  <!-- Generator: Adobe Illustrator 30.0.0, SVG Export Plug-In . SVG Version: 2.1.1 Build 123)  -->
  <defs>
    <style>
      .st0 {
        fill: none;
        stroke: #a32600;
        stroke-miterlimit: 10;
        stroke-width: 2px;
      }

      .st1 {
        fill: #a32600;
      }
    </style>
  </defs>
  <path class="st0" d="M248.1,627.8l-206.6-39.8c-3.4-.6-6.1-5.1-6.1-10V118.7c0-4.8,2.7-10.2,6.1-11.9L248.1,2.4c5.7-2.9,10.5,0,10.5,6.4v609.3c0,6.5-4.8,10.8-10.5,9.7Z"/>
  <g>
    <g>
      <path class="st1" d="M170.9,290.2c-.3-29.2-.6-58.3-.9-87.5.8-.2,1.2-.3,1.9-.5.3,29.2.6,58.5.9,87.7-.8.1-1.2.2-1.9.3Z"/>
      <path class="st1" d="M171.1,203.9c-.4-.6-.7-.8-1.1-1.4,15.5-15.7,30.7-31.6,45.6-47.9.4.6.7.9,1.1,1.5-14.9,16.2-30.1,32.1-45.6,47.8Z"/>
      <path class="st1" d="M221.5,155.8c-4.5,1.4-8.1-.2-8.1-3.7s3.5-7.3,8.1-8.8c4.5-1.5,8.1.2,8.1,3.7s-3.5,7.4-8.1,8.8ZM221.5,145.5c-3.3,1.1-6.1,3.8-6.1,6s2.8,3.1,6.1,2.1c3.3-1,6.1-3.8,6.1-6s-2.8-3.2-6.1-2.1Z"/>
    </g>
    <g>
      <path class="st1" d="M164.1,291.2c-.4-33.5-.7-67-1.1-100.4.8-.2,1.2-.3,1.9-.6.4,33.6.7,67.1,1.1,100.7-.8.1-1.2.2-1.9.3Z"/>
      <path class="st1" d="M164.2,192c-.4-.6-.7-.8-1.1-1.4,15.5-15.9,30.7-32,45.6-48.4.4.6.7.9,1.1,1.4-14.9,16.4-30.1,32.5-45.6,48.3Z"/>
      <path class="st1" d="M214.6,143.3c-4.5,1.5-8.1,0-8.1-3.5s3.5-7.4,8.1-8.9c4.5-1.6,8.1,0,8.1,3.5s-3.5,7.4-8.1,8.9ZM214.6,133c-3.3,1.1-6.1,3.9-6.1,6.1s2.8,3.1,6.1,2c3.3-1.1,6.1-3.9,6.1-6.1s-2.8-3.1-6.1-2Z"/>
    </g>
    <g>
      <path class="st1" d="M158.1,292.2c-.4-37.8-.8-75.5-1.2-113.3.8-.2,1.2-.4,1.9-.6.4,37.9.8,75.7,1.2,113.6-.8.1-1.2.2-1.9.3Z"/>
      <path class="st1" d="M158,180c-.4-.5-.7-.8-1.1-1.3,15.5-16.1,30.7-32.4,45.6-49,.4.6.7.8,1.1,1.4-14.9,16.6-30.1,32.9-45.6,48.9Z"/>
      <path class="st1" d="M208.4,130.7c-4.5,1.6-8.1.1-8.1-3.3s3.5-7.4,8.1-9c4.5-1.6,8.1-.2,8.1,3.3s-3.5,7.4-8.1,9ZM208.4,120.5c-3.3,1.2-6.1,4-6.1,6.2s2.8,3,6.1,1.8c3.3-1.2,6.1-4,6.1-6.2s-2.8-3-6.1-1.8Z"/>
    </g>
    <g>
      <path class="st1" d="M177,289.3c-.3-24.6-.5-49.1-.8-73.7.8-.2,1.2-.3,1.9-.5.3,24.6.5,49.2.8,73.9-.8.1-1.2.2-1.9.3Z"/>
      <path class="st1" d="M177.4,216.8c-.4-.6-.7-.9-1.1-1.4,15.5-15.5,30.7-31.2,45.6-47.3.4.6.7.9,1.1,1.5-14.9,16-30.1,31.7-45.6,47.2Z"/>
      <path class="st1" d="M227.7,169.5c-4.5,1.3-8.1-.4-8.1-3.9s3.5-7.3,8.1-8.7c4.5-1.4,8.1.3,8.1,3.9s-3.5,7.4-8.1,8.7ZM227.7,159.1c-3.3,1-6.1,3.7-6.1,5.9s2.8,3.2,6.1,2.3c3.3-1,6.1-3.7,6.1-5.9,0-2.2-2.8-3.3-6.1-2.3Z"/>
    </g>
    <g>
      <path class="st1" d="M183.5,288.3c-.2-20.3-.4-40.6-.6-60.8.8-.2,1.2-.3,1.9-.5.2,20.3.4,40.7.6,61-.8.1-1.2.2-1.9.3Z"/>
      <path class="st1" d="M184,228.7c-.4-.6-.7-.9-1.1-1.5,15.5-15.3,30.7-30.9,45.6-46.8.4.6.7.9,1.1,1.5-14.9,15.8-30.1,31.4-45.6,46.7Z"/>
      <path class="st1" d="M234.3,181.9c-4.5,1.2-8.1-.6-8.1-4.1s3.5-7.3,8.1-8.6c4.5-1.3,8.1.5,8.1,4.1s-3.5,7.4-8.1,8.6ZM234.3,171.5c-3.3,1-6.1,3.6-6.1,5.8s2.8,3.3,6.1,2.4c3.3-.9,6.1-3.6,6.1-5.8s-2.8-3.3-6.1-2.4Z"/>
    </g>
    <g>
      <path class="st1" d="M152,293.7c-.4-42-.9-84-1.3-125.9.8-.3,1.2-.4,1.9-.6.4,42.1.9,84.2,1.3,126.3-.8.1-1.2.2-1.9.3Z"/>
      <path class="st1" d="M151.8,168.9c-.4-.5-.7-.8-1.1-1.3,15.5-16.2,30.7-32.7,45.6-49.5.4.5.7.8,1.1,1.4-14.9,16.7-30.1,33.2-45.6,49.4Z"/>
      <path class="st1" d="M202.2,118.9c-4.5,1.6-8.1.3-8.1-3.1,0-3.4,3.5-7.4,8.1-9.1,4.5-1.7,8.1-.3,8.1,3.1,0,3.5-3.5,7.5-8.1,9.1ZM202.2,108.8c-3.3,1.3-6.1,4.1-6.1,6.2s2.8,2.9,6.1,1.7c3.3-1.2,6.1-4.1,6.1-6.2s-2.8-2.9-6.1-1.7Z"/>
    </g>
    <g>
      <path class="st1" d="M123,297.7c-.8.1-1.2.2-1.9.3.3-27.5.6-54.9.9-82.4.8-.2,1.2-.3,1.9-.5-.3,27.5-.6,55.1-.9,82.6Z"/>
      <path class="st1" d="M122.7,216.8c-15-6.4-30.2-12.1-45.6-17.3.4-.7.7-1.1,1.1-1.8,15.4,5.2,30.6,10.9,45.6,17.2-.4.8-.7,1.1-1.1,1.9Z"/>
      <path class="st1" d="M72.4,202c-4.5,1.4-8.1.3-8.1-2.5s3.5-6.2,8.1-7.7c4.5-1.5,8.1-.4,8.1,2.5s-3.5,6.3-8.1,7.7ZM72.4,193.6c-3.3,1.1-6.1,3.5-6.1,5.3s2.8,2.4,6.1,1.4c3.3-1,6.1-3.4,6.1-5.3s-2.8-2.4-6.1-1.4Z"/>
    </g>
    <g>
      <path class="st1" d="M129.8,296.5c-.8.1-1.2.2-1.9.3.4-32.1.7-64.1,1.1-96.2.8-.2,1.2-.3,1.9-.5-.4,32.1-.7,64.3-1.1,96.4Z"/>
      <path class="st1" d="M129.7,201.8c-15-6.2-30.2-11.8-45.6-16.8.4-.7.7-1.1,1.1-1.9,15.4,5,30.6,10.5,45.6,16.7-.4.8-.7,1.2-1.1,1.9Z"/>
      <path class="st1" d="M79.3,187.6c-4.5,1.5-8.1.4-8.1-2.5s3.5-6.3,8.1-7.9c4.5-1.6,8.1-.5,8.1,2.5s-3.5,6.4-8.1,7.9ZM79.3,179.1c-3.3,1.1-6.1,3.6-6.1,5.4s2.8,2.4,6.1,1.3c3.3-1.1,6.1-3.6,6.1-5.4s-2.8-2.4-6.1-1.3Z"/>
    </g>
    <g>
      <path class="st1" d="M135.8,295.6c-.8.1-1.2.2-1.9.3.4-36.8.8-73.6,1.2-110.3.8-.2,1.2-.3,1.9-.6-.4,36.9-.8,73.7-1.2,110.6Z"/>
      <path class="st1" d="M135.9,186.7c-15-6-30.2-11.4-45.6-16.2.4-.8.7-1.1,1.1-1.9,15.4,4.8,30.6,10.1,45.6,16.2-.4.8-.7,1.2-1.1,2Z"/>
      <path class="st1" d="M85.5,173.2c-4.5,1.6-8.1.5-8.1-2.3s3.5-6.4,8.1-8.1c4.5-1.6,8.1-.6,8.1,2.3s-3.5,6.5-8.1,8.1ZM85.5,164.6c-3.3,1.2-6.1,3.7-6.1,5.5s2.8,2.4,6.1,1.2c3.3-1.2,6.1-3.7,6.1-5.5s-2.8-2.4-6.1-1.2Z"/>
    </g>
    <g>
      <path class="st1" d="M116.9,298.5c-.8.1-1.2.2-1.9.3.3-22.7.5-45.4.8-68.1.8-.2,1.2-.3,1.9-.5-.3,22.7-.5,45.5-.8,68.2Z"/>
      <path class="st1" d="M116.5,231.9c-14.9-6.6-30.2-12.5-45.6-17.9.4-.7.7-1.1,1.1-1.8,15.4,5.4,30.7,11.3,45.6,17.8-.4.7-.7,1.1-1.1,1.9Z"/>
      <path class="st1" d="M66.2,216.4c-4.5,1.3-8.1.1-8.1-2.7s3.5-6.1,8.1-7.5c4.5-1.4,8.1-.2,8.1,2.7s-3.5,6.1-8.1,7.5ZM66.2,208c-3.3,1-6.1,3.3-6.1,5.1s2.8,2.4,6.1,1.4c3.3-1,6.1-3.3,6.1-5.1s-2.8-2.5-6.1-1.4Z"/>
    </g>
    <g>
      <path class="st1" d="M110.4,299.4c-.8.1-1.2.2-1.9.3.2-18.4.4-36.8.6-55.2.8-.2,1.2-.3,1.9-.4-.2,18.5-.4,36.9-.6,55.4Z"/>
      <path class="st1" d="M109.9,245.7c-14.9-6.7-30.2-12.8-45.6-18.4.4-.7.7-1.1,1.1-1.8,15.4,5.6,30.7,11.6,45.6,18.3-.4.7-.7,1.1-1.1,1.8Z"/>
      <path class="st1" d="M59.6,229.6c-4.5,1.2-8.1,0-8.1-2.7s3.5-6,8.1-7.3c4.5-1.3,8.1-.1,8.1,2.7s-3.5,6-8.1,7.3ZM59.6,221.4c-3.3,1-6.1,3.2-6.1,5s2.8,2.4,6.1,1.5c3.3-.9,6.1-3.2,6.1-5s-2.8-2.5-6.1-1.5Z"/>
    </g>
    <g>
      <path class="st1" d="M141.9,295.3c-.8.1-1.2.2-1.9.3.4-41.6.9-83.2,1.3-124.8.8-.2,1.2-.4,1.9-.6-.4,41.7-.9,83.4-1.3,125.1Z"/>
      <path class="st1" d="M142.1,172c-15-5.9-30.2-11-45.6-15.7.4-.8.7-1.2,1.1-1.9,15.4,4.6,30.6,9.8,45.6,15.6-.4.8-.7,1.2-1.1,2Z"/>
      <path class="st1" d="M91.7,159.1c-4.5,1.6-8.1.7-8.1-2.3s3.5-6.5,8.1-8.2c4.5-1.7,8.1-.7,8.1,2.3s-3.5,6.6-8.1,8.2ZM91.7,150.4c-3.3,1.3-6.1,3.9-6.1,5.7s2.8,2.3,6.1,1.1c3.3-1.2,6.1-3.8,6.1-5.7s-2.8-2.4-6.1-1.1Z"/>
    </g>
    <path class="st1" d="M196.6,373.1c-33.8,1.4-67.5,2.9-101.3,4.3-5.8.2-10.6-4.1-10.6-9.6v-54.4c0-5.6,4.8-10.8,10.6-11.7,33.8-5.2,67.5-10.3,101.3-15.5,5.8-.9,10.6,3.7,10.6,10.3v64.3c0,6.6-4.8,12.1-10.6,12.4ZM95.3,303.6c-4.8.7-8.7,5-8.7,9.6v54.6c0,4.6,3.9,8.1,8.7,7.9,33.8-1.5,67.5-3,101.3-4.6,4.8-.2,8.7-4.7,8.7-10.1v-64.2c0-5.4-3.9-9.1-8.7-8.4-33.8,5.1-67.5,10.2-101.3,15.2Z"/>
    <g>
      <path class="st1" d="M146.1,294c-.4-53.8-.9-107.5-1.3-161.3.8-.3,1.2-.4,1.9-.7.4,53.9.9,107.8,1.3,161.7-.8.1-1.2.2-1.9.3Z"/>
      <path class="st0" d="M145.9,129.5"/>
      <path class="st0" d="M145.5,166.1"/>
      <path class="st1" d="M145.7,133.3c-4.5,1.7-8.1.5-8.1-2.6s3.5-7,8.1-8.7c4.5-1.8,8.1-.6,8.1,2.6s-3.5,7.1-8.1,8.7ZM145.7,124c-3.3,1.3-6.1,4-6.1,6s2.8,2.6,6.1,1.3c3.3-1.2,6.1-4,6.1-6,0-2-2.8-2.6-6.1-1.3Z"/>
    </g>
    <g>
      <path class="st1" d="M172.1,461.7c-.8,0-1.2,0-1.9-.2.3-29.2.6-58.5.9-87.7.8,0,1.2,0,1.9,0-.3,29.3-.6,58.6-.9,87.9Z"/>
      <path class="st1" d="M215.8,500.6c-14.9-13.3-30-26.4-45.6-38.9.4-.6.7-1,1.1-1.6,15.6,12.5,30.7,25.6,45.6,38.9-.4.7-.7,1-1.1,1.7Z"/>
      <path class="st1" d="M221.6,510.8c-4.5-.6-8.1-3.8-8.1-7.2s3.5-5.8,8.1-5.3c4.5.5,8.1,3.7,8.1,7.2s-3.5,5.9-8.1,5.3ZM221.6,500.5c-3.3-.4-6.1,1.1-6.1,3.3s2.8,4.4,6.1,4.8c3.3.4,6.1-1.1,6.1-3.3s-2.8-4.4-6.1-4.8Z"/>
    </g>
    <g>
      <path class="st1" d="M165.1,475c-.8,0-1.2-.1-1.9-.2.4-33.6.7-67.1,1.1-100.7.8,0,1.2,0,1.9,0-.4,33.6-.7,67.3-1.1,100.9Z"/>
      <path class="st1" d="M208.8,514.4c-14.9-13.5-30-26.7-45.6-39.5.4-.6.7-1,1.1-1.6,15.6,12.7,30.7,26,45.6,39.4-.4.7-.7,1-1.1,1.6Z"/>
      <path class="st1" d="M214.7,524.6c-4.5-.7-8.1-3.9-8.1-7.3,0-3.4,3.5-5.7,8.1-5.1,4.5.6,8.1,3.8,8.1,7.3,0,3.5-3.5,5.7-8.1,5.1ZM214.7,514.4c-3.3-.4-6.1,1-6.1,3.2s2.8,4.4,6.1,4.9c3.3.5,6.1-1,6.1-3.2s-2.8-4.4-6.1-4.9Z"/>
    </g>
    <g>
      <path class="st1" d="M158.9,488.1c-.8,0-1.2-.1-1.9-.2.4-37.8.8-75.7,1.2-113.5.8,0,1.2,0,1.9,0-.4,37.9-.8,75.9-1.2,113.8Z"/>
      <path class="st1" d="M202.6,528.1c-14.9-13.6-30-27.1-45.6-40,.4-.6.7-.9,1.1-1.6,15.6,12.9,30.7,26.3,45.6,40-.4.6-.7,1-1.1,1.6Z"/>
      <path class="st1" d="M208.5,538.4c-4.5-.8-8.1-4-8.1-7.4s3.5-5.6,8.1-4.9c4.5.7,8.1,3.9,8.1,7.4s-3.5,5.6-8.1,4.9ZM208.5,528.2c-3.3-.5-6.1.9-6.1,3,0,2.1,2.8,4.4,6.1,5,3.3.5,6.1-.8,6.1-3s-2.8-4.4-6.1-5Z"/>
    </g>
    <g>
      <path class="st1" d="M178.3,447.5c-.8,0-1.2,0-1.9-.1.3-24.6.5-49.2.8-73.8.8,0,1.2,0,1.9,0-.3,24.7-.5,49.3-.8,74Z"/>
      <path class="st1" d="M222,485.9c-14.9-13.1-30-26-45.6-38.3.4-.7.7-1,1.1-1.7,15.6,12.3,30.7,25.2,45.6,38.3-.4.7-.7,1-1.1,1.7Z"/>
      <path class="st1" d="M227.8,496.1c-4.5-.5-8.1-3.6-8.1-7.1s3.5-5.9,8.1-5.5c4.5.4,8.1,3.6,8.1,7.1s-3.5,6-8.1,5.5ZM227.8,485.7c-3.3-.3-6.1,1.3-6.1,3.5s2.8,4.4,6.1,4.7c3.3.4,6.1-1.2,6.1-3.5s-2.8-4.4-6.1-4.7Z"/>
    </g>
    <g>
      <path class="st1" d="M184.9,434.3c-.8,0-1.2,0-1.9,0,.2-20.3.4-40.6.6-61,.8,0,1.2,0,1.9,0-.2,20.4-.4,40.7-.6,61.1Z"/>
      <path class="st1" d="M228.6,472.3c-14.9-13-30.1-25.7-45.6-37.8.4-.7.7-1,1.1-1.7,15.5,12.2,30.7,24.8,45.6,37.8-.4.7-.7,1-1.1,1.7Z"/>
      <path class="st1" d="M234.4,482.4c-4.5-.4-8.1-3.5-8.1-7s3.5-6,8.1-5.7c4.5.3,8.1,3.4,8.1,7s-3.5,6.1-8.1,5.7ZM234.4,471.9c-3.3-.3-6.1,1.4-6.1,3.6s2.8,4.3,6.1,4.6c3.3.3,6.1-1.3,6.1-3.6s-2.8-4.4-6.1-4.6Z"/>
    </g>
    <g>
      <path class="st1" d="M152.7,500.5c-.8-.1-1.2-.2-1.9-.3.4-42.1.9-84.1,1.3-126.2.8,0,1.2,0,1.9,0-.4,42.2-.9,84.4-1.3,126.5Z"/>
      <path class="st1" d="M196.4,541c-14.9-13.8-30-27.4-45.6-40.6.4-.6.7-.9,1.1-1.5,15.6,13.1,30.7,26.7,45.6,40.5-.4.6-.7.9-1.1,1.6Z"/>
      <path class="st1" d="M202.3,551.2c-4.5-.8-8.1-4.1-8.1-7.5s3.5-5.4,8.1-4.7c4.5.8,8.1,4.1,8.1,7.5s-3.5,5.5-8.1,4.7ZM202.3,541.2c-3.3-.6-6.1.7-6.1,2.9s2.8,4.4,6.1,5c3.3.6,6.1-.7,6.1-2.9s-2.8-4.5-6.1-5Z"/>
    </g>
    <g>
      <path class="st1" d="M122,458c-.3-27.4-.6-54.8-.9-82.2.8,0,1.2,0,1.9-.1.3,27.5.6,55,.9,82.5-.8,0-1.2,0-1.9-.1Z"/>
      <path class="st1" d="M78.3,484.5c-.4-.6-.7-1-1.1-1.6,15.4-8.4,30.6-17.1,45.6-26.2.4.7.7,1,1.1,1.7-15,9.1-30.2,17.8-45.6,26.2Z"/>
      <path class="st1" d="M72.5,491.5c-4.5-.6-8.1-3.3-8.1-6.1s3.5-4.6,8.1-4.1c4.5.5,8.1,3.2,8.1,6.1s-3.5,4.7-8.1,4.1ZM72.5,483.1c-3.3-.4-6.1.8-6.1,2.6s2.8,3.6,6.1,4.1c3.3.4,6.1-.8,6.1-2.6s-2.8-3.7-6.1-4.1Z"/>
    </g>
    <g>
      <path class="st1" d="M129,471.7c-.4-32-.7-64-1.1-96,.8,0,1.2,0,1.9-.1.4,32.1.7,64.2,1.1,96.2-.8,0-1.2,0-1.9-.2Z"/>
      <path class="st1" d="M85.3,497.6c-.4-.7-.7-1-1.1-1.7,15.4-8.2,30.6-16.7,45.6-25.7.4.7.7,1,1.1,1.7-15,9-30.2,17.5-45.6,25.7Z"/>
      <path class="st1" d="M79.4,504.7c-4.5-.7-8.1-3.4-8.1-6.3s3.5-4.6,8.1-4c4.5.6,8.1,3.4,8.1,6.3s-3.5,4.7-8.1,4ZM79.4,496.2c-3.3-.4-6.1.7-6.1,2.5s2.8,3.7,6.1,4.2c3.3.5,6.1-.7,6.1-2.5s-2.8-3.8-6.1-4.2Z"/>
    </g>
    <g>
      <path class="st1" d="M135.2,485.5c-.4-36.7-.8-73.4-1.2-110.1.8,0,1.2,0,1.9-.1.4,36.8.8,73.6,1.2,110.4-.8,0-1.2-.1-1.9-.2Z"/>
      <path class="st1" d="M91.5,511c-.4-.7-.7-1-1.1-1.7,15.4-8,30.6-16.4,45.6-25.1.4.7.7,1,1.1,1.7-15,8.8-30.2,17.1-45.6,25.1Z"/>
      <path class="st1" d="M85.6,518c-4.5-.8-8.1-3.6-8.1-6.5s3.5-4.6,8.1-3.9c4.5.7,8.1,3.5,8.1,6.5s-3.5,4.7-8.1,3.9ZM85.6,509.4c-3.3-.5-6.1.6-6.1,2.4s2.8,3.8,6.1,4.3c3.3.5,6.1-.6,6.1-2.4s-2.8-3.8-6.1-4.3Z"/>
    </g>
    <g>
      <path class="st1" d="M115.8,444.2c-.3-22.6-.5-45.3-.8-67.9.8,0,1.2,0,1.9-.1.3,22.7.5,45.4.8,68.1-.8,0-1.2,0-1.9,0Z"/>
      <path class="st1" d="M72.1,471.2c-.4-.6-.7-1-1.1-1.6,15.5-8.6,30.6-17.5,45.6-26.8.4.7.7,1,1.1,1.6-15,9.3-30.1,18.2-45.6,26.8Z"/>
      <path class="st1" d="M66.3,478.3c-4.5-.5-8.1-3.1-8.1-5.9s3.5-4.7,8.1-4.2,8.1,3,8.1,5.9-3.5,4.7-8.1,4.2ZM66.3,469.9c-3.3-.3-6.1.9-6.1,2.6s2.8,3.5,6.1,3.9c3.3.4,6.1-.9,6.1-2.6s-2.8-3.6-6.1-3.9Z"/>
    </g>
    <g>
      <path class="st1" d="M109.2,431.6c-.2-18.4-.4-36.7-.6-55.1.8,0,1.2,0,1.9-.1.2,18.4.4,36.8.6,55.2-.8,0-1.2,0-1.9,0Z"/>
      <path class="st1" d="M65.5,459.1c-.4-.6-.7-.9-1.1-1.6,15.5-8.7,30.6-17.8,45.6-27.3.4.6.7,1,1.1,1.6-15,9.5-30.1,18.6-45.6,27.3Z"/>
      <path class="st1" d="M59.7,466.2c-4.5-.4-8.1-2.9-8.1-5.7s3.5-4.7,8.1-4.3c4.5.3,8.1,2.8,8.1,5.7s-3.5,4.7-8.1,4.3ZM59.7,458c-3.3-.3-6.1,1-6.1,2.7s2.8,3.5,6.1,3.8c3.3.3,6.1-.9,6.1-2.7s-2.8-3.5-6.1-3.8Z"/>
    </g>
    <g>
      <path class="st1" d="M141.4,499.1c-.4-41.5-.9-83-1.3-124.5.8,0,1.2,0,1.9-.1.4,41.6.9,83.2,1.3,124.8-.8,0-1.2-.1-1.9-.2Z"/>
      <path class="st1" d="M97.7,524c-.4-.7-.7-1-1.1-1.7,15.5-7.7,30.6-16,45.6-24.6.4.7.7,1.1,1.1,1.8-15,8.6-30.1,16.9-45.6,24.6Z"/>
      <path class="st1" d="M91.8,531c-4.5-.8-8.1-3.8-8.1-6.7s3.5-4.6,8.1-3.8c4.5.8,8.1,3.7,8.1,6.7s-3.5,4.7-8.1,3.8ZM91.8,522.3c-3.3-.6-6.1.5-6.1,2.3s2.8,3.9,6.1,4.5c3.3.6,6.1-.5,6.1-2.3s-2.8-3.9-6.1-4.5Z"/>
    </g>
    <g>
      <path class="st1" d="M146.8,536.8c-.8-.1-1.2-.2-1.9-.4.4-53.9.9-107.7,1.3-161.6.8,0,1.2,0,1.9,0-.4,54-.9,108-1.3,162Z"/>
      <path class="st0" d="M146,539.4"/>
      <path class="st0" d="M145.6,502.9"/>
      <path class="st1" d="M145.8,547c-4.5-.9-8.1-4-8.1-7.2s3.5-5,8.1-4.2c4.5.8,8.1,3.9,8.1,7.2s-3.5,5.1-8.1,4.2ZM145.8,537.6c-3.3-.6-6.1.6-6.1,2.5s2.8,4.2,6.1,4.8c3.3.6,6.1-.5,6.1-2.5s-2.8-4.2-6.1-4.8Z"/>
    </g>
  </g>
</svg>