<svg width="167" height="164" viewBox="0 0 167 164" fill="none" xmlns="http://www.w3.org/2000/svg">
<path d="M67.683 90.2541C62.6933 90.2541 58.7456 94.5495 59.6846 99.4503C62.5041 114.166 68.7774 127.655 77.6332 139.043C80.6295 142.896 86.3403 142.896 89.3367 139.043C98.1933 127.655 104.466 114.167 107.285 99.4503C108.224 94.5495 104.277 90.2541 99.2869 90.2541H67.683Z" fill="#FFF3E0"/>
<path d="M133.486 90.2541C129.046 90.2541 125.392 93.6818 124.741 98.0731C121.79 117.993 113.515 136.18 101.418 151.136C98.8021 154.369 99.1765 159.179 102.465 161.725C104.205 163.072 106.479 163.55 108.58 162.9C137.694 153.906 160.118 129.671 166.533 99.5157C167.578 94.6047 163.618 90.2541 158.597 90.2541H133.486Z" fill="#FFF3E0"/>
<path d="M8.37169 90.2541C3.35082 90.2541 -0.608886 94.6047 0.435805 99.5157C7.08026 130.751 30.9005 155.634 61.5412 163.808C63.6185 164.361 65.8146 163.691 67.3137 162.151C69.635 159.765 69.6401 155.983 67.4775 153.453C54.3328 138.075 45.3335 119.034 42.2277 98.0731C41.577 93.6818 37.9226 90.2541 33.4833 90.2541H8.37169Z" fill="#FFF3E0"/>
<path d="M166.533 64.0115C167.577 68.9222 163.618 73.2728 158.597 73.2728H133.486C129.046 73.2728 125.391 69.8451 124.741 65.4537C121.79 45.5335 113.515 27.3465 101.418 12.3913C98.8021 9.15786 99.1765 4.34798 102.465 1.80206C104.205 0.455353 106.479 -0.0227547 108.58 0.626611C137.694 9.62119 160.118 33.8557 166.533 64.0115Z" fill="#FFF3E0"/>
<path d="M107.286 64.0763C108.224 68.9773 104.277 73.2727 99.2869 73.2727H67.683C62.6933 73.2727 58.7456 68.9773 59.6846 64.0762C62.5042 49.3601 68.7774 35.8721 77.6332 24.4834C80.6295 20.6305 86.3403 20.6306 89.3367 24.4834C98.1933 35.8721 104.466 49.3601 107.286 64.0763Z" fill="#FFF3E0"/>
<path d="M58.3753 0.630232C60.4838 -0.0215111 62.7649 0.460757 64.507 1.81578C67.7866 4.36663 68.1559 9.17022 65.5429 12.4009C53.4503 27.3542 45.1787 45.5375 42.2276 65.4528C41.5769 69.8442 37.9225 73.2727 33.4833 73.2727H8.37165C3.35078 73.2727 -0.609011 68.9221 0.43568 64.011C6.84927 33.8598 29.2672 9.62821 58.3753 0.630232Z" fill="#FFF3E0"/>
</svg>
