<?xml version="1.0" encoding="utf-8"?>
<!-- Generator: Adobe Illustrator 19.0.0, SVG Export Plug-In . SVG Version: 6.00 Build 0)  -->
<svg version="1.1" id="Layer_1" xmlns="http://www.w3.org/2000/svg" xmlns:xlink="http://www.w3.org/1999/xlink" x="0px" y="0px"
	 viewBox="0 0 260 650" style="enable-background:new 0 0 260 650;" xml:space="preserve">
<style type="text/css">
	.st0{fill:#2D2A26;stroke:#0A5E5E;stroke-width:2;stroke-miterlimit:10;}
</style>
<path id="XMLID_11_" class="st0" d="M248.1,630.4L39.9,583.6c-3.4-0.8-6.1-5.4-6.1-10.2V112.5c0-4.9,2.7-10.1,6.1-11.7L248.1,2.3
	c5.8-2.7,10.6,0.3,10.6,6.7v612C258.7,627.5,253.9,631.7,248.1,630.4z"/>
<path id="XMLID_9_" class="st0" d="M207.1,566.6L68.4,544c-3.2-0.5-5.7-4.5-5.7-8.9l0,0c0-4.4,2.6-7.6,5.7-7.1l138.7,19.6
	c4.5,0.6,8.3,5.5,8.3,10.8l0,0C215.4,563.6,211.6,567.3,207.1,566.6z"/>
<path id="XMLID_7_" class="st0" d="M155.4,549.2c0,16.7-10.8,28.2-23.7,25.8c-12.5-2.4-22.4-17-22.4-32.8s9.9-27.4,22.4-26
	C144.6,517.7,155.4,532.5,155.4,549.2z"/>
<path id="XMLID_1_" class="st0" d="M138.6,77.3c0,4.9-3.1,10.3-7,11.9c-3.8,1.6-6.9-1-6.9-5.8s3.1-10.1,6.9-11.9
	C135.5,69.8,138.6,72.4,138.6,77.3z"/>
<g id="XMLID_2_">
</g>
<g id="XMLID_3_">
</g>
<g id="XMLID_4_">
</g>
<g id="XMLID_5_">
</g>
<g id="XMLID_6_">
</g>
<g id="XMLID_8_">
</g>
<g id="XMLID_10_">
</g>
<g id="XMLID_12_">
</g>
<g id="XMLID_13_">
</g>
<g id="XMLID_14_">
</g>
<g id="XMLID_15_">
</g>
<g id="XMLID_16_">
</g>
<g id="XMLID_17_">
</g>
<g id="XMLID_18_">
</g>
<g id="XMLID_19_">
</g>
</svg>
