<svg width="116" height="87" viewBox="0 0 116 87" fill="none" xmlns="http://www.w3.org/2000/svg">
<path d="M34.2058 0.404694H17.0092C8.04006 0.404694 0.768311 7.67645 0.768311 16.6456V33.8422C0.768311 42.8113 8.04006 50.0829 17.0092 50.0829H18.7105C20.1369 50.0829 21.4731 50.7868 22.2822 51.9648C23.0877 53.1428 23.2646 54.6426 22.749 55.9734L13.0495 81.1094C12.5339 82.4418 12.7108 83.9416 13.5163 85.1178C14.3254 86.2958 15.6616 86.9998 17.088 86.9998H28.5072C30.118 86.9998 31.5973 86.1038 32.3425 84.6776L46.1291 58.3386C48.9669 52.9168 50.4498 46.8872 50.4498 40.7675V16.6454C50.4503 7.67644 43.1749 0.404694 34.2058 0.404694Z" fill="#FFF3E0"/>
<path d="M99.7596 0.404694H82.5626C73.5934 0.404694 66.3221 7.67645 66.3221 16.6456V33.8422C66.3221 42.8113 73.5937 50.0829 82.5626 50.0829H84.2603C85.6867 50.0829 87.0265 50.7868 87.832 51.9648C88.6413 53.1428 88.8144 54.6426 88.3026 55.9734L78.5995 81.1097C78.0839 82.442 78.2608 83.9419 79.0699 85.118C79.8754 86.296 81.2116 87 82.6418 87H94.0574C95.6682 87 97.1475 86.104 97.8965 84.6778L111.679 58.3388C114.517 52.9168 116 46.8874 116 40.7675V16.6454C116 7.67644 108.729 0.404694 99.7596 0.404694Z" fill="#FFF3E0"/>
</svg>
