<?xml version="1.0" encoding="utf-8"?>
<!-- Generator: Adobe Illustrator 19.0.0, SVG Export Plug-In . SVG Version: 6.00 Build 0)  -->
<svg version="1.1" id="Layer_1" xmlns="http://www.w3.org/2000/svg" xmlns:xlink="http://www.w3.org/1999/xlink" x="0px" y="0px"
	 viewBox="0 0 260 650" style="enable-background:new 0 0 260 650;" xml:space="preserve">
<style type="text/css">
	.st0{fill:none;stroke:#A3134F;stroke-width:2;stroke-miterlimit:10;}
</style>
<g id="XMLID_2_">
</g>
<g id="XMLID_3_">
</g>
<g id="XMLID_4_">
</g>
<g id="XMLID_5_">
</g>
<g id="XMLID_6_">
</g>
<g id="XMLID_8_">
</g>
<g id="XMLID_10_">
</g>
<g id="XMLID_12_">
</g>
<g id="XMLID_13_">
</g>
<g id="XMLID_14_">
</g>
<g id="XMLID_15_">
</g>
<g id="XMLID_16_">
</g>
<g id="XMLID_17_">
</g>
<g id="XMLID_18_">
</g>
<g id="XMLID_19_">
</g>
<path id="XMLID_23_" class="st0" d="M248.1,627.8L41.5,588c-3.4-0.6-6.1-5.1-6.1-10V118.7c0-4.8,2.7-10.2,6.1-11.9L248.1,2.4
	c5.7-2.9,10.5,0,10.5,6.4v609.3C258.6,624.6,253.8,628.9,248.1,627.8z"/>
<path id="XMLID_22_" class="st0" d="M231.9,297.3l-181,32.5c-3.5,0.6-6.3-2.9-6.3-7.8V198.9c0-4.9,2.8-10,6.3-11.3l181-69.3
	c5.5-2.1,10.1,1.3,10.1,7.6v158.2C242,290.3,237.4,296.3,231.9,297.3z"/>
<path id="XMLID_21_" class="st0" d="M231.9,98.3l-181,73.4c-3.5,1.4-6.3-1.5-6.3-6.4v-8.9c0-4.9,2.8-10.2,6.3-11.7l181-80.4
	c5.5-2.5,10.1,0.7,10.1,7v11.5C242,89.1,237.4,96.1,231.9,98.3z"/>
<path id="XMLID_20_" class="st0" d="M114.4,436.3l-63.6,1.6c-3.5,0.1-6.3-3.9-6.3-8.8v-73.9c0-4.9,2.8-9.4,6.3-9.9l63.6-10
	c4.2-0.7,7.6,3.3,7.6,8.7v82.2C122,431.7,118.6,436.2,114.4,436.3z"/>
<path id="XMLID_11_" class="st0" d="M231.9,569l-83.7-10.8c-4.5-0.6-8.1-5.6-8.1-11.2V341.4c0-5.6,3.6-10.7,8.1-11.4l83.7-13.2
	c5.5-0.9,10.1,3.6,10.1,9.9v232.1C242,565.2,237.4,569.7,231.9,569z"/>
<path id="XMLID_1_" class="st0" d="M114.4,553.8l-63.6-8.2c-3.5-0.4-6.3-4.8-6.3-9.7V462c0-4.9,2.8-8.9,6.3-9l63.6-0.2
	c4.2,0,7.6,4.4,7.6,9.9v82.2C122,550.3,118.6,554.3,114.4,553.8z"/>
</svg>
