<?xml version="1.0" encoding="UTF-8"?>
<svg id="Layer_1" xmlns="http://www.w3.org/2000/svg" version="1.1" viewBox="0 0 2500 689">
  <!-- Generator: Adobe Illustrator 29.1.0, SVG Export Plug-In . SVG Version: 2.1.0 Build 142)  -->
  <defs>
    <style>
      .st0 {
        fill: none;
      }

      .st1 {
        fill-rule: evenodd;
      }

      .st1, .st2 {
        fill: #fff;
      }

      .st3 {
        fill: #0acf83;
      }

      .st4 {
        fill: #ff7262;
      }

      .st5 {
        fill: #1abcfe;
      }

      .st6 {
        fill: #f24e1e;
      }

      .st7 {
        fill: #a259ff;
      }
    </style>
  </defs>
  <path class="st2" d="M604.3.6v530.9l68.2.3v-252.7h164.7v-66.9h-164.7V67.5h214.4V.6h-282.6ZM1010,108.3c24.7,0,44.5-20,44.5-44.5s-20-44.5-44.5-44.5-44.5,20-44.5,44.5,20,44.5,44.5,44.5ZM975.4,175.2v356.3h68.2V175.2h-68.2Z"/>
  <path class="st1" d="M1296.8,164.8c-90.8,0-154.1,76.8-154.1,167.9s63.2,167.9,154.1,167.9,75.7-16.1,100.7-42.2v47.1c0,59.1-46.3,108.3-107,108.3s-43.5-8.3-60.6-20.3l-34.4,59.3c27.3,17.7,59.9,27.8,94.7,27.8,96.8,0,175.2-78.3,175.2-175.2V175.2h-67.9v31.8c-25-26-59.1-42.2-100.7-42.2ZM1211.2,332.7c0-56.5,43.2-101,93.2-101s93.2,44.5,93.2,101-43.2,101-93.2,101-93.2-44.5-93.2-101h0Z"/>
  <path class="st2" d="M1712,231.7c-40.3,0-73.1,34.4-73.1,74.7v225.1h-68.2V175.2h68.2v32.5c20-25.8,49.4-42.9,88-42.9s84.6,23.7,105.9,60.1c23.7-35.1,62.2-60.1,108.8-60.1,77.8,0,126.2,62.7,126.5,140.3v226.4h-68.2v-225.4c0-40.3-32.8-74.7-73.1-74.7s-73.1,34.4-73.1,74.7v225.4h-68.2v-225.4c-.3-40.3-33.1-74.4-73.4-74.4Z"/>
  <path class="st1" d="M2431.8,215.5c-30.4-31.5-72.1-50.7-120.2-50.7-101.5,0-173.8,86.1-173.8,188.7s72.1,188.7,173.8,188.7,89.8-19.5,120.2-50.7v40.1h68.2V175.2h-68.2v40.3ZM2206.2,353.5c0-67.9,52.1-121.8,113-121.8s113,53.6,113,121.8-52.1,121.8-113,121.8c-60.9-.3-113-53.9-113-121.8Z"/>
  <path class="st0" d="M0,.6h458.8v688.1H0V.6Z"/>
  <path class="st5" d="M229.3,344.6c0-63.2,51.3-114.8,114.8-114.8s114.8,51.3,114.8,114.8-51.3,114.8-114.8,114.8-114.8-51.5-114.8-114.8h0Z"/>
  <path class="st3" d="M0,573.9c0-63.2,51.3-114.8,114.8-114.8h114.8v114.8c0,63.2-51.3,114.8-114.8,114.8S0,637.4,0,573.9h0Z"/>
  <path class="st4" d="M229.3.6v229.3h114.8c63.2,0,114.8-51.3,114.8-114.8S407.6.3,344.1.3h-114.8v.3Z"/>
  <path class="st6" d="M0,115.3c0,63.2,51.3,114.8,114.8,114.8h114.8V.6h-114.8C51.3.6,0,51.8,0,115.3Z"/>
  <path class="st7" d="M0,344.6c0,63.2,51.3,114.8,114.8,114.8h114.8v-229.5h-114.8C51.3,229.9,0,281.4,0,344.6Z"/>
</svg>