<?xml version="1.0" encoding="UTF-8"?>
<svg id="Layer_1" xmlns="http://www.w3.org/2000/svg" version="1.1" viewBox="0 0 612 406">
  <!-- Generator: Adobe Illustrator 29.1.0, SVG Export Plug-In . SVG Version: 2.1.0 Build 142)  -->
  <defs>
    <style>
      .st0 {
        fill: #fff;
      }
    </style>
  </defs>
  <path class="st0" d="M1.2,392.2v-86.2c0-6.3,5.1-11.5,11.5-11.5h10c6.3,0,11.5,5.1,11.5,11.5h0c0,1.4,1.7,1.8,2.4.7,5.4-9.3,15.6-14.5,27.1-14.5s23.5,4.8,30.6,17.1c.5.8,1.6.9,2.2,0,10-14.6,22-17.1,33.9-17.1,28.3,0,40.1,23.2,40.1,48.8v51.2c0,6.3-5.1,11.5-11.5,11.5h-10c-6.3,0-11.5-5.1-11.5-11.5v-49.7c0-15.3-5.9-23.6-15.7-23.6s-19.1,7.4-19.5,27.4v45.9c0,6.3-5.1,11.5-11.5,11.5h-10c-6.3,0-11.5-5.1-11.5-11.5v-49.7c0-15.3-5.7-23.6-15.5-23.6s-19.8,8.1-19.8,28.5v44.8c0,6.3-5.1,11.5-11.5,11.5h-10c-6.3,0-11.5-5.2-11.5-11.5"/>
  <path class="st0" d="M327.2,392.2v-86.2c0-6.3,5.1-11.5,11.5-11.5h9.1c6.3,0,11.5,5.1,11.5,11.5v3.6c0,1.4,1.9,1.8,2.4.5,5.7-13.4,17.9-17.9,25.8-17.9l3.6.2c5.1.4,6.2,4.5,6.2,8.7v14.9c0,5.9-3,8.5-7.4,7.9-1.9-.2-3.6-.4-5.3-.4-12.7,0-24.4,8.3-24.4,35.7v33.1c0,6.3-5.1,11.5-11.5,11.5h-10c-6.3,0-11.5-5.1-11.5-11.5"/>
  <path class="st0" d="M486.1,336.3c.8,0,1.4-.8,1.2-1.6-3.5-13.4-15.5-17.7-26.4-17.7s-23.4,4.7-27.6,17.7c-.3.8.4,1.6,1.2,1.6h51.5ZM400.7,349.5c0-30.8,23.2-57.3,59.9-57.3s56.5,18.7,58,53.5c.2,6.2-4,8.9-10.4,8.9h-74.7c-.7,0-1.3.6-1.3,1.3.4,12.5,13.2,24.2,33.6,24.2s15.9-1.9,24.2-6.6c5.7-3.2,10.4-2.8,14.4,2.1l2.3,3c4.2,5.1,3.8,10.8-1.9,15.1-12.5,9.1-27.2,12.3-41.2,12.3-39.1,0-62.9-25.3-62.9-56.5"/>
  <path class="st0" d="M524.5,384.1c-3.2-6.4.2-11,6.8-12.7l6.6-1.5c5.7-1.5,8.3,1.3,12.7,5.7,3.8,4.2,9.6,6.4,16.4,6.4s14-3.8,14-9.6-3.2-7-10.2-9.6l-13.4-4.7c-11.3-3.6-30.8-11.9-30.8-31.7s17-34.4,40.6-34.4,26.8,4.5,34.8,16.6c4.2,6.2,1.1,11.7-5.9,13.4l-5.9,1.5c-5.5,1.5-8.5-.4-12.3-4-3-3-6.8-4-10.6-4-6.8,0-11,4.2-11,9.3s4.2,7,10,8.9l13.6,5.1c22.5,7.4,30.6,19.5,31,32.9,0,22.9-20.4,34.2-44,34.2-19.3,0-35.1-7.2-42.3-21.8"/>
  <path class="st0" d="M350.1,117.8c0-31.8-14.1-79.2-71.3-79.2s-63,25-63,57.8,23.4,55.7,56.8,55.7,44.8,13.5,44.8,20.3c0,14.4-8.2,29.9-57,49-40.9,14.3-78.8,45.6-78.8,105.4s14.1,79.2,71.3,79.2,63-25,63-57.8-23.4-55.7-56.8-55.7-44.8-13.5-44.8-20.3c0-14.4,8.2-29.9,57-49,40.9-14.3,78.8-45.6,78.8-105.4"/>
</svg>