<?xml version="1.0" encoding="utf-8"?>
<!-- Generator: Adobe Illustrator 19.0.0, SVG Export Plug-In . SVG Version: 6.00 Build 0)  -->
<svg version="1.1" id="Layer_1" xmlns="http://www.w3.org/2000/svg" xmlns:xlink="http://www.w3.org/1999/xlink" x="0px" y="0px"
	 viewBox="0 0 598 208.3" style="enable-background:new 0 0 598 208.3;" xml:space="preserve">
<style type="text/css">
	.st0{fill:none;}
	.st1{fill:#FFF3E0;}
	.st2{clip-path:url(#XMLID_17_);}
	.st3{clip-path:url(#XMLID_18_);}
	.st4{clip-path:url(#XMLID_19_);}
	.st5{clip-path:url(#XMLID_20_);fill:#FFF3E0;}
	.st6{clip-path:url(#XMLID_21_);}
</style>
<g id="XMLID_600_">
	<circle id="XMLID_605_" class="st0" cx="363.3" cy="144.7" r="52.5"/>
	<path id="XMLID_607_" class="st1" d="M363.3,207.3c-34.5,0-62.6-28.1-62.6-62.6s28.1-62.6,62.6-62.6s62.6,28.1,62.6,62.6
		S397.8,207.3,363.3,207.3z M363.3,102.2c-23.4,0-42.5,19-42.5,42.5s19,42.5,42.5,42.5s42.5-19,42.5-42.5S386.7,102.2,363.3,102.2z"
		/>
</g>
<path id="XMLID_634_" class="st1" d="M286.3,207.3L286.3,207.3c-8.9,0-16.1-7.2-16.1-16.1V51.6c0-2.2,1.8-4,4-4h0
	c8.9,0,16.1,7.2,16.1,16.1v139.7C290.3,205.5,288.5,207.3,286.3,207.3z"/>
<path id="XMLID_635_" class="st1" d="M504,206.7l-17.1,0c-1.1,0-2.1-0.4-2.8-1.2l-54.2-54.2c-0.9-0.9-0.9-2.2,0-3.1l12.7-12.7
	l64.3,64.3C509.4,202.4,507.6,206.7,504,206.7z"/>
<path id="XMLID_636_" class="st1" d="M486.7,82.4l18.1,0c3.6-0.1,5.2,4,2.6,6.6L405.2,191.2l-12.1-12.1c-1.2-1.2-0.9-3.5,0.8-5.2
	l86.9-86.9C481.6,86.3,485.6,82.4,486.7,82.4z"/>
<g id="XMLID_612_">
	<defs>
		<path id="XMLID_619_" d="M153.5,144.8l-23.2,23.2l-23.2,23.2l-23.2,23.2l-23.2,23.2L49.5,226l-11.4-11.4l-26.3-26.3l-26.3-26.3
			L0,147.9c1.3-1.3,3.5-1.3,4.9,0l27.5,27.5l60.1-60.1L65,88c-1.4-1.4-1.4-3.6,0-5l13.6-13.2l52.2,52.2l11.4,11.4L153.5,144.8z"/>
	</defs>
	<clipPath id="XMLID_17_">
		<use xlink:href="#XMLID_619_"  style="overflow:visible;"/>
	</clipPath>
	<g id="XMLID_614_" class="st2">
		<circle id="XMLID_615_" class="st0" cx="62.5" cy="145.4" r="52.5"/>
		<path id="XMLID_616_" class="st1" d="M106.7,189.7c-24.4,24.4-64.1,24.4-88.6,0s-24.4-64.1,0-88.6s64.1-24.4,88.6,0
			S131.2,165.2,106.7,189.7z M32.4,115.4c-16.6,16.6-16.6,43.5,0,60.1s43.5,16.6,60.1,0s16.6-43.5,0-60.1S49,98.8,32.4,115.4z"/>
	</g>
</g>
<g id="XMLID_620_">
	<defs>
		<path id="XMLID_640_" d="M65.4-27.3L42.3-4.2L19.1,19L-4.1,42.1l-23.2,23.2l11.4,11.4L-4.5,88l26.3,26.3L48,140.5l14.3-14.4
			c1.3-1.3,1.3-3.5,0-4.9L34.8,93.8l60.1-60.1l27.4,27.5c1.4,1.4,3.6,1.4,5,0l13.2-13.6L88.2-4.6L76.8-16L65.4-27.3z"/>
	</defs>
	<clipPath id="XMLID_18_">
		<use xlink:href="#XMLID_640_"  style="overflow:visible;"/>
	</clipPath>
	<g id="XMLID_621_" class="st3">
		<circle id="XMLID_623_" class="st0" cx="64.8" cy="63.7" r="52.5"/>
		<path id="XMLID_637_" class="st1" d="M109.1,19.5c24.4,24.4,24.4,64.1,0,88.6s-64.1,24.4-88.6,0s-24.4-64.1,0-88.6
			S84.7-5,109.1,19.5z M94.8,33.7c-16.6-16.6-43.5-16.6-60.1,0s-16.6,43.5,0,60.1s43.5,16.6,60.1,0S111.4,50.3,94.8,33.7z"/>
	</g>
</g>
<g id="XMLID_641_">
	<defs>
		<path id="XMLID_647_" d="M262.1,208.7h-32.8h-32.8h-32.8h-32.8v-16.1v-16.1v-37.1v-37.1l20.3,0.1c1.9,0,3.4,1.5,3.4,3.4v38.9h84.9
			l-0.1-38.8c0-2,1.6-3.5,3.6-3.5l18.9,0.3v73.8v16.1V208.7z"/>
	</defs>
	<clipPath id="XMLID_19_">
		<use xlink:href="#XMLID_647_"  style="overflow:visible;"/>
	</clipPath>
	<g id="XMLID_642_" class="st4">
		<circle id="XMLID_643_" class="st0" cx="197.3" cy="144.7" r="52.5"/>
		<path id="XMLID_644_" class="st1" d="M197.3,207.3c-34.5,0-62.6-28.1-62.6-62.6s28.1-62.6,62.6-62.6s62.6,28.1,62.6,62.6
			S231.8,207.3,197.3,207.3z M197.3,102.2c-23.4,0-42.5,19-42.5,42.5s19,42.5,42.5,42.5s42.5-19,42.5-42.5S220.7,102.2,197.3,102.2z
			"/>
	</g>
</g>
<g id="XMLID_694_">
	<defs>
		<circle id="XMLID_703_" cx="554.5" cy="143.9" r="62.5"/>
	</defs>
	<clipPath id="XMLID_20_">
		<use xlink:href="#XMLID_703_"  style="overflow:visible;"/>
	</clipPath>
	<path id="XMLID_696_" class="st5" d="M538,144.5L538,144.5c0,5.5,4.4,9.9,9.9,9.9h13.5c5.5,0,10-4.5,10-10v0
		c0-5.6-4.5-10.2-10.2-10.2h-13.1C542.6,134.3,538,138.8,538,144.5z"/>
</g>
<g id="XMLID_704_">
	<defs>
		<path id="XMLID_714_" d="M490.4,210v-16.4v-16.4v-16.4v-16.4v-16.4v-16.4V95.4V79h8h8h8h8h18.6h18.6h18.6h18.6l0,10.1l0,10.1
			c0,0.9-0.4,1.8-1,2.4c-0.6,0.6-1.5,1-2.4,1h-19.5h-19.5l-34.3,41.8l34.3,43.1l19.4-0.1l19.4-0.1c1,0,1.9,0.4,2.5,1
			c0.6,0.6,1,1.5,1,2.5l-0.1,9.5l-0.1,9.5h-36.9h-36.9h-8h-8h-8H490.4z"/>
	</defs>
	<clipPath id="XMLID_21_">
		<use xlink:href="#XMLID_714_"  style="overflow:visible;"/>
	</clipPath>
	<g id="XMLID_708_" class="st6">
		<circle id="XMLID_709_" class="st0" cx="554.4" cy="145.2" r="52.5"/>
		<path id="XMLID_710_" class="st1" d="M491.8,145.2c0-34.5,28.1-62.6,62.6-62.6s62.6,28.1,62.6,62.6s-28.1,62.6-62.6,62.6
			S491.8,179.7,491.8,145.2z M596.8,145.2c0-23.4-19-42.5-42.5-42.5s-42.5,19-42.5,42.5s19,42.5,42.5,42.5S596.8,168.6,596.8,145.2z
			"/>
	</g>
</g>
<g id="XMLID_1_">
</g>
<g id="XMLID_2_">
</g>
<g id="XMLID_3_">
</g>
<g id="XMLID_4_">
</g>
<g id="XMLID_5_">
</g>
<g id="XMLID_6_">
</g>
<g id="XMLID_7_">
</g>
<g id="XMLID_8_">
</g>
<g id="XMLID_9_">
</g>
<g id="XMLID_10_">
</g>
<g id="XMLID_11_">
</g>
<g id="XMLID_12_">
</g>
<g id="XMLID_13_">
</g>
<g id="XMLID_14_">
</g>
<g id="XMLID_15_">
</g>
</svg>
