<?xml version="1.0" encoding="UTF-8"?>
<svg id="artwork" xmlns="http://www.w3.org/2000/svg" version="1.1" viewBox="0 0 191.2 59.4">
  <!-- Generator: Adobe Illustrator 29.1.0, SVG Export Plug-In . SVG Version: 2.1.0 Build 142)  -->
  <defs>
    <style>
      .st0 {
        fill: #f05138;
      }

      .st1 {
        fill: #fff;
      }
    </style>
  </defs>
  <g>
    <path class="st0" d="M59.4,16.5c0-.6,0-1.2,0-1.8,0-1.3-.1-2.6-.3-3.9-.2-1.3-.6-2.5-1.2-3.7-.6-1.2-1.4-2.2-2.3-3.2-.9-.9-2-1.7-3.2-2.3-1.2-.6-2.4-1-3.7-1.2-1.3-.2-2.6-.3-3.9-.3-.6,0-1.2,0-1.8,0-.7,0-1.4,0-2.1,0h-22.2c-.7,0-1.4,0-2.1,0-.6,0-1.2,0-1.8,0-.3,0-.7,0-1,0-1,0-2,.1-2.9.3-1,.2-1.9.4-2.8.8-.3.1-.6.3-.9.4-.9.4-1.7,1-2.4,1.6-.2.2-.5.4-.7.7-.9.9-1.7,2-2.3,3.2-.6,1.2-1,2.4-1.2,3.7-.2,1.3-.3,2.6-.3,3.9,0,.6,0,1.2,0,1.8,0,.7,0,1.4,0,2.1v22.2c0,.7,0,1.4,0,2.1,0,.6,0,1.2,0,1.8,0,1.3.1,2.6.3,3.9.2,1.3.6,2.5,1.2,3.7.6,1.2,1.4,2.2,2.3,3.2.9.9,2,1.7,3.2,2.3,1.2.6,2.4,1,3.7,1.2,1.3.2,2.6.3,3.9.3.6,0,1.2,0,1.8,0,.7,0,1.4,0,2.1,0h22.2c.7,0,1.4,0,2.1,0,.6,0,1.2,0,1.8,0,1.3,0,2.6-.1,3.9-.3,1.3-.2,2.5-.6,3.7-1.2,1.2-.6,2.2-1.4,3.2-2.3.9-.9,1.7-2,2.3-3.2.6-1.2,1-2.4,1.2-3.7.2-1.3.3-2.6.3-3.9,0-.6,0-1.2,0-1.8,0-.7,0-1.4,0-2.1v-22.2c0-.7,0-1.4,0-2.1Z"/>
    <path class="st1" d="M47.1,36.7s0,0,0,0c0-.2.1-.4.2-.7,2.5-9.8-3.6-21.4-13.7-27.5,4.5,6,6.4,13.4,4.7,19.8-.2.6-.3,1.1-.6,1.7-.2-.1-.5-.3-.9-.5,0,0-10.1-6.3-21.1-17.3-.3-.3,5.9,8.8,12.8,16.1-3.3-1.8-12.4-8.5-18.2-13.8.7,1.2,1.6,2.3,2.5,3.4,4.8,6.1,11.1,13.7,18.7,19.5-5.3,3.2-12.8,3.5-20.3,0-1.8-.9-3.6-1.9-5.2-3.1,3.2,5.1,8,9.4,14,12,7.1,3,14.1,2.8,19.3,0h0s0,0,0,0c.2-.1.4-.2.6-.4,2.5-1.3,7.5-2.6,10.2,2.6.7,1.3,2-5.5-3.1-11.7Z"/>
  </g>
  <g>
    <path class="st1" d="M81.9,38.5c.5,4.1,4.4,6.8,9.9,6.8s8.9-2.7,8.9-6.4-2.3-5.2-7.5-6.5l-5-1.3c-7.3-1.8-10.5-5.1-10.5-10.5s5.8-11.3,14.1-11.3,13.7,4.6,13.9,11.3h-5.3c-.4-4.1-3.7-6.6-8.7-6.6s-8.4,2.5-8.4,6.2,2.1,4.6,7.4,5.9l4.2,1.1c8.1,2,11.5,5.2,11.5,10.9s-5.8,11.8-14.9,11.8-14.3-4.5-14.8-11.5h5.4Z"/>
    <path class="st1" d="M140,49.4h-5.3l-6.2-21.8h-.1l-6.2,21.8h-5.3l-7.9-28.5h5.2l5.5,22.9h.1l6.2-22.9h5l6.3,22.9h.1l5.5-22.9h5.1l-7.9,28.5Z"/>
    <path class="st1" d="M151.4,13.2c0-1.7,1.4-3.1,3.1-3.1s3.2,1.4,3.2,3.1-1.4,3.1-3.2,3.1-3.1-1.4-3.1-3.1ZM151.9,20.9h5.2v28.5h-5.2v-28.5Z"/>
    <path class="st1" d="M191.2,25.1v-4.2h-5.5v-6.8h-5.2v6.8h-10v-2.5c0-2.5,1-3.6,3.4-3.6s1.5,0,2.2.2v-4.1c-.9-.1-1.8-.2-2.8-.2-5.6,0-7.9,2.3-7.9,7.6v2.6h-4v4.2h4v24.3h5.2v-24.3h9.9v16.8c0,5.5,2.1,7.6,7.6,7.6s2.5,0,3.1-.2v-4.3c-.4,0-1.4.1-2,.1-2.4,0-3.5-1.1-3.5-3.7v-16.4h5.5Z"/>
  </g>
</svg>