<?xml version="1.0" encoding="UTF-8"?>
<svg id="Layer_1" xmlns="http://www.w3.org/2000/svg" version="1.1" viewBox="0 0 2500 308">
  <!-- Generator: Adobe Illustrator 29.1.0, SVG Export Plug-In . SVG Version: 2.1.0 Build 142)  -->
  <defs>
    <style>
      .st0 {
        fill: #06b6d4;
      }

      .st1 {
        fill: #fff;
      }
    </style>
  </defs>
  <path class="st1" d="M775.7,129.8h-45v86.7c0,23.1,15.3,22.7,45,21.3v35c-60.2,7.2-84.2-9.4-84.2-56.3v-86.7h-33.4v-37.6h33.4v-48.5l39.2-11.5v60.1h45v37.6ZM947.2,92.2h39.2v180.6h-39.2v-26c-13.8,19.2-35.2,30.7-63.5,30.7-49.3,0-90.3-41.6-90.3-95s41-95,90.3-95,49.7,11.5,63.5,30.3v-25.6ZM889.9,240.3c32.7,0,57.3-24.2,57.3-57.8s-24.7-57.8-57.3-57.8-57.3,24.2-57.3,57.8,24.6,57.8,57.3,57.8ZM1051.7,65.1c-13.8,0-25.1-11.6-25.1-24.9,0-3.3.7-6.5,1.9-9.5,2.5-6.1,7.4-11,13.5-13.5,3-1.2,6.3-1.9,9.6-1.9s6.5.7,9.6,1.9c3,1.2,5.8,3.1,8.1,5.4,2.3,2.3,4.1,5.1,5.4,8.1,1.2,3,1.9,6.3,1.9,9.5,0,13.4-11.2,24.9-25,24.9ZM1032.1,272.8V92.2h39.2v180.6h-39.2ZM1116.7,272.8V9.1h39.2v263.7h-39.2ZM1410.2,92.2h41.4l-57,180.6h-38.5l-37.7-121.7-38.1,121.7h-38.5l-57-180.6h41.4l35.2,124.6,38.1-124.6h37.4l37.7,124.6,35.6-124.6ZM1500.2,65.1c-13.8,0-25-11.6-25-24.9s.7-6.5,1.9-9.5c1.3-3,3.1-5.7,5.4-8.1,2.3-2.3,5.1-4.1,8.1-5.4,3.1-1.2,6.3-1.9,9.6-1.9,6.6,0,13,2.6,17.7,7.3,2.3,2.3,4.2,5.1,5.4,8.1,1.3,3,1.9,6.3,1.9,9.5,0,13.4-11.3,24.9-25.1,24.9ZM1480.6,272.8V92.2h39.2v180.6h-39.2ZM1730.3,161.9v110.9h-39.2v-106.9c0-27.5-16-41.9-40.7-41.9s-46.1,15.2-46.1,52v96.8h-39.2V92.2h39.2v23.1c12-18.8,31.6-27.8,56.3-27.8,40.6,0,69.7,27.5,69.7,74.4h0ZM1916,19.9h39.2v252.9h-39.2v-26c-13.8,19.2-35.2,30.7-63.5,30.7-49.4,0-90.4-41.6-90.4-95s41-95,90.4-95,49.7,11.5,63.5,30.3V19.9ZM1858.7,240.3c32.6,0,57.3-24.2,57.3-57.8s-24.7-57.8-57.3-57.8-57.3,24.2-57.3,57.8,24.7,57.8,57.3,57.8ZM1990.8,182.5c0-53.8,41-95,95.8-95s66.4,18.4,80.9,46.6l-33.7,19.5c-8-17-25.8-27.8-47.5-27.8-31.9,0-56.2,24.2-56.2,56.7s24.3,56.7,56.2,56.7,39.6-11.2,48.3-27.8l33.8,19.1c-15.3,28.5-46.1,47-81.6,47-54.8,0-95.8-41.6-95.8-95ZM2330.4,221.9c0,36.1-31.6,55.7-70.8,55.7s-62.4-16.3-74-42.3l33.7-19.5c5.8,16.3,20.3,26,40.3,26s30.9-5.8,30.9-20.2c0-32.2-97.6-14.1-97.6-78.8s29.4-55.3,66.4-55.3,54.4,13.7,67.1,37.6l-33,18.4c-6.5-14.1-19.2-20.6-34.1-20.6s-26.5,6.1-26.5,19.1c0,32.9,97.6,13,97.6,79.8h0ZM2497.7,221.9c0,36.1-31.6,55.7-70.8,55.7s-62.4-16.3-74-42.3l33.8-19.5c5.8,16.3,20.3,26,40.3,26s30.8-5.8,30.8-20.2c0-32.2-97.6-14.1-97.6-78.8s29.4-55.3,66.4-55.3,54.4,13.7,67.1,37.6l-33,18.4c-6.5-14.1-19.2-20.6-34.1-20.6s-26.5,6.1-26.5,19.1c0,32.9,97.6,13,97.6,79.8h0Z"/>
  <path class="st0" d="M260.1,0C191.4,0,148.4,34.2,131.2,102.7c25.8-34.2,55.9-47.1,90.3-38.5,19.6,4.9,33.6,19.1,49.1,34.8,25.3,25.5,54.5,55.1,118.4,55.1s111.7-34.2,128.9-102.7c-25.8,34.2-55.8,47-90.2,38.5-19.6-4.9-33.6-19.1-49.1-34.7C353.3,29.5,324,0,260.1,0ZM131.2,154c-68.7,0-111.7,34.2-128.9,102.7,25.8-34.2,55.8-47,90.2-38.5,19.6,4.9,33.6,19.1,49.1,34.7,25.3,25.6,54.5,55.1,118.4,55.1s111.7-34.2,128.9-102.7c-25.8,34.2-55.9,47.1-90.2,38.5-19.6-4.9-33.6-19.1-49.2-34.8-25.3-25.5-54.5-55.1-118.4-55.1h0Z"/>
</svg>